<?xml version="1.0" encoding="UTF-8"?>
<svg width="37" height="37" version="1.1" viewBox="0 0 9.7896 9.7896" xmlns="http://www.w3.org/2000/svg" xmlns:xlink="http://www.w3.org/1999/xlink">
<defs>
<linearGradient id="b" x1="68.081" x2="67.345" y1="144.82" y2="143.92" gradientTransform="matrix(-1 0 0 1 75.142 -137.05)" gradientUnits="userSpaceOnUse" xlink:href="#a"/>
<linearGradient id="a">
<stop stop-color="#939393" offset="0"/>
<stop offset="1"/>
</linearGradient>
<linearGradient id="c" x1="68.081" x2="67.345" y1="144.82" y2="143.92" gradientTransform="matrix(1 0 0 -1 -65.352 146.84)" gradientUnits="userSpaceOnUse" xlink:href="#a"/>
<linearGradient id="d" x1="69.85" x2="70.644" y1="142.35" y2="142.35" gradientTransform="matrix(-1 0 0 1 75.671 -137.05)" gradientUnits="userSpaceOnUse" xlink:href="#a"/>
<linearGradient id="e" x1="69.85" x2="70.644" y1="142.35" y2="142.35" gradientTransform="matrix(1 0 0 -1 -65.881 146.84)" gradientUnits="userSpaceOnUse" xlink:href="#a"/>
</defs>
<g display="none">
<rect x="66.94" y="72.231" width="9.7896" height="9.7896" rx="0" ry="0" fill="#e6e6e6" stroke="#116afc" stroke-width=".026458" style="paint-order:markers stroke fill"/>
</g>
<g>
<rect x="1.8521" y="2.4104e-5" width="6.0854" height="9.7896" ry="1.8858" fill="#333" style="paint-order:markers stroke fill"/>
<rect x="1.8521" y="2.4104e-5" width="3.7042" height="9.7896" ry="0" fill="#333" style="paint-order:markers stroke fill"/>
<path d="m5.5563 9.7896c0.79068-0.62664 1.5957-1.2874 2.3075-1.8537l-5e-3 -1.586-0.9796 0.7939-2.6463 2.2052-0.5287 0.44062 1.8521-2e-5" fill="url(#b)"/>
<path d="m4.2334 1.6708e-5 -0.04134 0.0331c-0.77349 0.62012-1.5714 1.2579-2.2645 1.815v1.5915l0.98293-0.79374 2.6463-2.2052 0.52872-0.44058-1.8521-2e-5" fill="url(#c)"/>
<path d="m5.5563 4.4979c0.78238 0.63896 2.305 1.8529 2.305 1.8529l0.0025 1.585-0.98456-0.79207-2.6463-2.2052 4.45e-4 -0.44061 1.3229 1e-5" fill="url(#d)"/>
<path d="m4.2334 5.2917c-0.78605-0.62951-1.5964-1.2826-2.3046-1.8508l-0.0013-1.5888 0.98293 0.79373 2.6463 2.2052-4.45e-4 0.44061-1.3229-1e-5" fill="url(#e)"/>
<path d="m5.5955 0.6446 0.0041 6.7346-0.0041 0.9004-1.3217 1.0996-0.0029-7.6349" fill="#fca311" style="mix-blend-mode:normal"/>
</g>
</svg>
